HIERARCHY
ROOT Hips
{
     OFFSET 52.94370 91.46940 122.91700
     CHANNELS 6 Xposition Yposition Zposition Zrotation Xrotation Yrotation
     JOINT Spine
     {
          OFFSET 0.00000 11.89050 -0.00000
          CHANNELS 3 Zrotation Xrotation Yrotation
          JOINT Spine1
          {
               OFFSET -0.00000 25.65740 0.12766
               CHANNELS 3 Zrotation Xrotation Yrotation
               JOINT HEad
               {
                    OFFSET -0.00000 8.73416 0.01134
                    CHANNELS 3 Zrotation Xrotation Yrotation
                    End Site
                    {
                         OFFSET -0.29000 12.77420 2.51395
                    }
               }
               JOINT LeftShoulder1
               {
                    OFFSET 8.99000 -0.36225 -0.22000
                    CHANNELS 3 Zrotation Xrotation Yrotation
                    JOINT LeftArm
                    {
                         OFFSET 10.28270 -0.00338 0.32212
                         CHANNELS 3 Zrotation Xrotation Yrotation
                         JOINT LeftForeArm
                         {
                              OFFSET 32.76690 0.09914 -1.42434
                              CHANNELS 3 Zrotation Xrotation Yrotation
                              JOINT LeftHand
                              {
                                   OFFSET 27.56430 0.08536 1.02216
                                   CHANNELS 3 Zrotation Xrotation Yrotation
                                   End Site
                                   {
                                        OFFSET 16.74430 -0.60000 1.50291
                                   }
                              }
                         }
                    }
               }
               JOINT RightShoulder
               {
                    OFFSET -8.99000 -0.36225 -0.22000
                    CHANNELS 3 Zrotation Xrotation Yrotation
                    JOINT RightArm
                    {
                         OFFSET -10.28270 -0.00338 0.32212
                         CHANNELS 3 Zrotation Xrotation Yrotation
                         JOINT RightForeArm
                         {
                              OFFSET -32.89710 0.09914 -1.42434
                              CHANNELS 3 Zrotation Xrotation Yrotation
                              JOINT RightHand
                              {
                                   OFFSET -27.49210 0.08536 1.02216
                                   CHANNELS 3 Zrotation Xrotation Yrotation
                                   End Site
                                   {
                                        OFFSET -16.63120 -0.60000 1.50291
                                   }
                              }
                         }
                    }
               }
          }
     }
     JOINT LeftUpLeg
     {
          OFFSET 8.94580 -8.66707 0.10165
          CHANNELS 3 Zrotation Xrotation Yrotation
          JOINT LeftLeg
          {
               OFFSET 0.00000 -44.42270 1.37270
               CHANNELS 3 Zrotation Xrotation Yrotation
               JOINT LeftFoot
               {
                    OFFSET -0.25355 -42.09240 -1.46059
                    CHANNELS 3 Zrotation Xrotation Yrotation
                    JOINT LeftToes
                    {
                         OFFSET -0.04000 -4.41509 8.49910
                         CHANNELS 3 Zrotation Xrotation Yrotation
                         End Site
                         {
                              OFFSET 0.08000 -0.04745 9.77979
                         }
                    }
               }
          }
     }
     JOINT RightUpLeg
     {
          OFFSET -8.94580 -8.66707 0.10165
          CHANNELS 3 Zrotation Xrotation Yrotation
          JOINT RightLeg
          {
               OFFSET -0.00000 -44.42270 1.37270
               CHANNELS 3 Zrotation Xrotation Yrotation
               JOINT RightFoot
               {
                    OFFSET 0.25355 -42.09240 -1.46059
                    CHANNELS 3 Zrotation Xrotation Yrotation
                    JOINT RightToes
                    {
                         OFFSET 0.04000 -4.41509 8.49910
                         CHANNELS 3 Zrotation Xrotation Yrotation
                         End Site
                         {
                              OFFSET -0.08000 -0.13745 9.77979
                         }
                    }
               }
          }
     }
}
MOTION
Frames: 20
Frame Time: 0.01667
27.27660 95.58330 -12.18290 -9.52821 -14.98110 -26.01200 -4.94420 13.55130 2.13139 -5.40567 26.75130 3.79697 -0.74349 -1.94201 3.63245 -0.00000 0.00000 -0.00000 -153.69200 -47.03080 -118.84500 -85.56050 66.24320 -32.27670 15.69180 7.91786 -10.84330 14.61570 1.69234 7.18109 79.61370 -10.18020 67.43210 16.37510 24.54730 82.04560 11.84170 12.12040 15.99260 16.61500 -0.28451 -15.67590 -20.83480 7.54545 55.01380 -1.71366 11.60050 0.20159 4.81498 -22.45190 -65.46140 -26.29950 16.17230 22.07870 35.12090 1.54550 -24.26350 -22.36380 -0.33187 1.32926 2.48907 -25.57650 3.90510 
27.66770 95.56840 -11.94980 -9.52693 -14.44270 -26.47430 -5.25323 13.60150 2.34189 -5.52534 26.81790 4.09466 -1.15034 -1.95316 3.94137 -0.00000 0.00000 -0.00000 -154.26100 -46.46640 -119.46100 -86.48310 66.75250 -31.80430 16.37060 7.79674 -11.05990 14.46330 1.75292 7.60389 79.67580 -10.54780 66.92640 16.60350 24.43710 81.88420 11.96270 12.14540 16.02480 16.56840 -0.95513 -15.67470 -21.11490 8.05823 55.64910 -1.95922 11.12060 0.23743 4.85887 -22.34290 -65.28250 -26.35980 15.62690 21.84930 35.21930 1.44308 -24.45950 -22.19530 -0.76429 1.23061 2.42869 -24.61210 4.62235 
28.01730 95.53660 -11.80900 -9.51155 -13.86860 -26.90010 -5.61325 13.66070 2.53544 -5.63165 26.90120 4.33527 -1.45307 -2.10846 4.24779 -0.00000 0.00000 -0.00000 -154.76100 -45.80160 -120.10000 -86.91830 67.32280 -31.79290 16.75440 7.74264 -11.07240 14.33230 1.80952 7.99898 79.76340 -10.83630 66.59080 16.65570 24.42350 81.90540 12.00890 12.16230 16.10150 16.54950 -1.71629 -15.44310 -21.27950 8.65773 56.08810 -2.27645 10.77000 0.28441 4.92501 -22.17610 -65.22650 -26.37300 15.06090 21.46990 35.37860 1.31925 -24.83510 -22.08600 -1.30525 1.11486 2.39078 -23.86840 5.41531 
28.33320 95.49120 -11.75780 -9.49154 -13.30630 -27.30690 -6.01058 13.74070 2.70528 -5.73539 27.02790 4.52005 -1.65876 -2.40940 4.55504 -0.00000 0.00000 -0.00000 -155.19701 -45.03160 -120.74600 -86.80110 67.91610 -32.28690 16.80770 7.76636 -10.85500 14.19940 1.86115 8.37113 79.84730 -10.99530 66.43730 16.47930 24.43360 82.02570 11.98410 12.17400 16.24440 16.54000 -2.49667 -14.93790 -21.31120 9.32227 56.33140 -2.58716 10.56160 0.33077 4.97636 -22.04630 -65.32290 -26.37310 14.51180 20.97460 35.60350 1.20343 -25.48280 -22.04200 -1.97838 0.97696 2.38003 -23.40580 6.17972 
28.62640 95.43940 -11.78710 -9.48369 -12.78500 -27.71450 -6.40262 13.84470 2.84178 -5.84270 27.20700 4.65530 -1.78598 -2.82865 4.86722 -0.00000 0.00000 -0.00000 -155.53400 -44.16140 -121.34600 -86.13950 68.52820 -33.24860 16.67190 7.84198 -10.44870 14.04600 1.90731 8.72747 79.89920 -10.98620 66.46400 16.08140 24.38540 82.13300 11.91770 12.18560 16.45520 16.55170 -3.23211 -14.23020 -21.24520 9.97771 56.43670 -2.84226 10.47010 0.36948 5.00909 -21.96440 -65.53610 -26.38720 14.00820 20.40700 35.90820 1.13112 -26.47080 -22.05610 -2.80411 0.81137 2.38562 -23.15860 6.80329 
28.90750 95.39110 -11.88250 -9.50777 -12.31190 -28.14470 -6.73000 13.96720 2.93649 -5.95350 27.42960 4.75245 -1.85318 -3.32553 5.18882 -0.00000 0.00000 -0.00000 -155.71700 -43.20790 -121.82900 -84.97420 69.18780 -34.60460 16.58930 7.92796 -9.91278 13.85110 1.94692 9.07453 79.90270 -10.78910 66.65810 15.52580 24.20460 82.10500 11.85450 12.20400 16.72230 16.61780 -3.87355 -13.45140 -21.14830 10.52660 56.49050 -3.02359 10.44620 0.39758 5.04512 -21.87530 -65.78970 -26.43290 13.56300 19.81550 36.31150 1.13888 -27.80740 -22.13010 -3.75873 0.62143 2.38628 -22.99120 7.20174 
29.18350 95.35740 -12.02810 -9.58303 -11.87660 -28.62190 -6.93266 14.09810 2.98472 -6.06136 27.67550 4.82588 -1.87206 -3.86251 5.52330 -0.00000 0.00000 -0.00000 -155.71001 -42.19740 -122.14100 -83.33180 69.92790 -36.30190 16.76640 7.99517 -9.28069 13.57670 1.97650 9.41661 79.86770 -10.40140 67.00630 14.90890 23.84060 81.83700 11.83660 12.23460 17.02660 16.77710 -4.38402 -12.72370 -21.08410 10.87970 56.56780 -3.13515 10.44120 0.41504 5.11561 -21.70150 -66.00200 -26.51630 13.17780 19.24480 36.82240 1.25775 -29.41780 -22.28520 -4.74603 0.42539 2.36388 -22.77830 7.36058 
29.45710 95.35000 -12.20890 -9.72630 -11.46270 -29.16900 -6.96372 14.22710 2.98564 -6.15545 27.92340 4.88891 -1.84818 -4.41772 5.87074 -0.00000 0.00000 -0.00000 -155.54100 -41.15920 -122.28000 -81.22830 70.75760 -38.30900 17.26800 8.04241 -8.54282 13.17020 1.98994 9.75371 79.82700 -9.83217 67.50550 14.31580 23.27890 81.27920 11.88350 12.27890 17.34410 17.05920 -4.73315 -12.11360 -21.08460 10.97600 56.70450 -3.19020 10.42770 0.42341 5.24399 -21.38420 -66.11650 -26.63170 12.85370 18.72530 37.42590 1.50502 -31.15280 -22.55790 -5.60650 0.25454 2.31552 -22.46670 7.34543 
29.72830 95.37790 -12.41350 -9.94962 -11.05580 -29.80240 -6.79910 14.34610 2.94097 -6.22395 28.15670 4.94975 -1.78496 -4.98538 6.22676 -0.00000 0.00000 -0.00000 -155.31200 -40.12040 -122.30100 -78.71390 71.66120 -40.57310 18.00440 8.09273 -7.66073 12.59140 1.98081 10.07910 79.81050 -9.09550 68.16640 13.77210 22.55150 80.47170 11.97540 12.33040 17.64620 17.47710 -4.89872 -11.63030 -21.14660 10.79200 56.89940 -3.20204 10.40620 0.42480 5.43576 -20.90700 -66.11230 -26.76580 12.60010 18.27080 38.07840 1.87481 -32.83420 -22.98070 -6.16500 0.14456 2.25491 -22.09460 7.27116 
29.99540 95.44350 -12.63480 -10.25650 -10.64870 -30.52740 -6.44315 14.44810 2.85393 -6.25685 28.36220 5.00910 -1.68826 -5.56652 6.58416 -0.00000 0.00000 -0.00000 -155.17300 -39.11100 -122.29600 -75.87940 72.62460 -43.00580 18.80930 8.17628 -6.59787 11.84450 1.94647 10.38070 79.81200 -8.20892 69.00720 13.22950 21.74110 79.54730 12.05440 12.37460 17.90220 18.02540 -4.87553 -11.25440 -21.24870 10.34180 57.14020 -3.18160 10.39370 0.42132 5.67850 -20.29540 -65.99810 -26.90860 12.43430 17.88750 38.72090 2.33263 -34.32410 -23.55620 -6.29549 0.12419 2.20342 -21.75880 7.25542 
30.25640 95.53980 -12.86990 -10.63750 -10.24160 -31.33960 -5.93051 14.52550 2.73014 -6.24707 28.52590 5.06043 -1.56914 -6.15557 6.93621 -0.00000 0.00000 -0.00000 -155.24600 -38.17460 -122.34500 -72.77630 73.65490 -45.54990 19.54490 8.31176 -5.34692 10.98560 1.89029 10.64370 79.78080 -7.19073 70.03970 12.60570 20.97180 78.69030 12.05190 12.39480 18.08380 18.68090 -4.68311 -10.96590 -21.37140 9.67749 57.42500 -3.14009 10.40410 0.41503 5.94931 -19.60060 -65.79630 -27.06860 12.36910 17.59180 39.30370 2.82152 -35.58050 -24.23340 -5.97447 0.20422 2.17843 -21.54850 7.38911 
30.50680 95.64070 -13.12700 -11.08030 -9.82795 -32.22340 -5.30694 14.57470 2.56808 -6.18318 28.63340 5.09284 -1.44516 -6.73117 7.28024 -0.00000 0.00000 -0.00000 -155.57300 -37.37550 -122.48300 -69.29100 74.76840 -48.29060 20.16270 8.49844 -3.94037 10.09590 1.81988 10.85510 79.64580 -6.05285 71.25880 11.85420 20.37770 78.06860 11.92740 12.38030 18.17190 19.42390 -4.41126 -10.74420 -21.51050 8.94962 57.75980 -3.11703 10.42190 0.41178 6.22475 -18.87730 -65.52790 -27.25650 12.39350 17.41030 39.81040 3.28098 -36.67560 -24.90980 -5.30037 0.36897 2.18203 -21.46630 7.71661 
30.71580 95.65730 -13.43180 -11.43630 -9.49638 -33.20980 -4.91767 14.59050 2.46496 -6.09984 28.67090 5.09584 -1.33992 -7.25199 7.62011 -0.00000 0.00000 -0.00000 -156.08900 -36.80010 -122.69200 -65.05730 75.94620 -51.53360 20.69690 8.72042 -2.44620 9.24004 1.74286 11.00860 79.34900 -4.78985 72.64040 11.01330 20.05840 77.78020 11.69290 12.33320 18.16300 20.05920 -4.25630 -10.54050 -21.68200 8.56223 58.20510 -3.26910 10.34450 0.43396 6.48823 -18.16500 -65.20320 -27.54250 11.94460 17.21450 40.34640 4.75608 -38.02040 -25.15710 -4.92522 0.46095 2.19162 -21.37390 8.21194 
30.90060 95.64300 -13.75910 -11.76580 -9.20860 -34.29930 -4.59415 14.55770 2.37185 -5.97800 28.61690 5.05920 -1.28333 -7.65829 7.96795 -0.00000 0.00000 -0.00000 -156.63499 -36.55050 -122.91400 -59.47350 77.08180 -55.78560 21.21560 8.95635 -0.95442 8.43855 1.66337 11.10710 78.85980 -3.37144 74.14920 10.19210 20.04870 77.83470 11.40080 12.26660 18.07770 20.65730 -4.09075 -10.37240 -21.86200 8.27757 58.74000 -3.46783 10.21820 0.46204 6.73258 -17.47950 -64.81800 -28.02760 11.53930 17.25370 40.88790 6.06687 -39.40190 -25.18260 -4.55167 0.54784 2.15660 -20.99930 8.76257 
31.05820 95.60480 -14.09850 -12.05630 -8.96252 -35.51410 -4.32470 14.46960 2.28542 -5.81065 28.45870 4.97751 -1.31433 -7.88320 8.34466 -0.00000 0.00000 -0.00000 -156.97701 -36.73250 -123.06300 -51.95370 77.95160 -61.50700 21.77050 9.18574 0.43605 7.66737 1.58087 11.15890 78.16530 -1.74255 75.75350 9.50885 20.32050 78.17030 11.10860 12.19680 17.95820 21.20210 -3.89486 -10.22730 -22.04360 8.07090 59.36360 -3.68844 10.02640 0.49137 6.96053 -16.80820 -64.35010 -28.75680 11.25520 17.59830 41.42070 6.94673 -40.75740 -25.01080 -4.20082 0.62331 2.01111 -20.01720 9.19700 
31.18190 95.54710 -14.44050 -12.28910 -8.75755 -36.88010 -4.10723 14.32720 2.20711 -5.59892 28.19820 4.85046 -1.48623 -7.87916 8.77793 -0.00000 0.00000 -0.00000 -151.30000 -38.16380 -120.18300 -32.01590 74.78860 -78.14170 22.41910 9.49542 2.19151 6.87553 1.49077 11.16660 77.25500 0.16524 77.44210 9.02967 20.80720 78.68730 10.85480 12.13640 17.85150 21.67170 -3.65689 -10.09530 -22.22430 7.92890 60.07660 -3.92945 9.74425 0.52055 7.18581 -16.10300 -63.75900 -29.74060 11.06280 18.24830 41.91840 7.36381 -41.99770 -24.64840 -3.88490 0.68304 1.70486 -18.16200 9.35355 
31.26660 95.47710 -14.77740 -12.45310 -8.59170 -38.41410 -3.92444 14.14150 2.13550 -5.34003 27.85650 4.68119 -1.86819 -7.65038 9.29699 -0.00000 0.00000 -0.00000 -140.67900 -40.04200 -114.42800 -16.92270 67.09240 -88.27240 22.83180 9.84058 4.02446 6.00550 1.38627 11.11820 76.11780 2.41293 79.23340 8.75517 21.42880 79.27850 10.65900 12.09220 17.78860 22.05330 -3.36204 -9.98193 -22.40530 7.82375 60.87700 -4.20607 9.34774 0.55038 7.43374 -15.27280 -62.98960 -30.96990 10.93230 19.17330 42.33650 7.30988 -42.99830 -24.11060 -3.54201 0.74000 1.23584 -15.32540 9.14323 
31.30920 95.40180 -15.10650 -12.54800 -8.46753 -40.11700 -3.75136 13.93340 2.06741 -5.02554 27.47490 4.47377 -2.53389 -7.26876 9.92444 -0.00000 0.00000 -0.00000 -126.36600 -41.23200 -106.09400 -8.41040 56.12600 -90.03040 22.63470 10.13690 5.57624 5.01050 1.26109 10.98660 74.74690 5.02969 81.17090 8.65690 22.10900 79.84440 10.53170 12.06630 17.77520 22.34280 -2.99585 -9.91065 -22.59100 7.72315 61.75580 -4.55113 8.82037 0.58384 7.73474 -14.19490 -61.99130 -32.42260 10.84030 20.32120 42.63020 6.79630 -43.66220 -23.41190 -3.09931 0.80837 0.66086 -11.60980 8.56450 
31.30810 95.32360 -15.43350 -12.58030 -8.39766 -41.97460 -3.57668 13.73030 2.00204 -4.64748 27.10700 4.23032 -3.53707 -6.85396 10.66790 -0.00000 0.00000 -0.00000 -109.19000 -40.51030 -95.64660 -2.76918 42.31330 -86.66470 21.46170 10.28200 6.45535 3.86759 1.11268 10.73700 73.14950 7.99845 83.30670 8.72212 22.78670 80.30040 10.47650 12.05810 17.80040 22.54020 -2.55246 -9.91500 -22.78360 7.61368 62.69280 -5.01044 8.16851 0.62539 8.10707 -12.76140 -60.74910 -34.07130 10.76490 21.63050 42.77420 5.86587 -43.97280 -22.57580 -2.53653 0.88957 0.07482 -7.31786 7.67365 
31.26150 95.24290 -15.77140 -12.56490 -8.39984 -43.95970 -3.40203 13.55890 1.93777 -4.20549 26.80450 3.94945 -4.88341 -6.52151 11.51300 -0.00000 0.00000 -0.00000 -91.30970 -36.94990 -84.82180 2.13931 26.20700 -79.62500 19.08620 10.17750 6.08173 2.58363 0.94396 10.33270 71.35570 11.26410 85.67850 8.96847 23.42470 80.58740 10.48600 12.06500 17.85130 22.65450 -2.02929 -10.02250 -22.97110 7.49829 63.64180 -5.61524 7.45039 0.67819 8.53501 -10.96230 -59.31700 -35.88340 10.69330 23.04870 42.76940 4.56814 -43.99540 -21.65460 -1.88930 0.97453 -0.42875 -2.84982 6.54827 
